<?xml version="1.0" standalone="no"?>
<!DOCTYPE svg PUBLIC "-//W3C//DTD SVG 20010904//EN"
 "http://www.w3.org/TR/2001/REC-SVG-20010904/DTD/svg10.dtd">
<svg version="1.0" xmlns="http://www.w3.org/2000/svg"
 width="1024.000000pt" height="906.000000pt" viewBox="0 0 1024.000000 906.000000"
 preserveAspectRatio="xMidYMid meet">

<g transform="translate(0.000000,906.000000) scale(0.100000,-0.100000)"
fill="#000000" stroke="none">
<path d="M7495 9053 c-393 -34 -762 -166 -1033 -369 -175 -132 -337 -321 -454
-532 -37 -67 -76 -134 -85 -149 -36 -55 9 -9 74 75 139 181 391 449 473 505
25 16 56 40 70 53 31 28 146 85 225 112 33 11 110 42 170 69 204 92 392 145
687 194 108 19 192 37 185 41 -12 7 -231 8 -312 1z"/>
<path d="M7931 8640 c-1 -14 -8 -130 -16 -258 -8 -128 -17 -317 -20 -420 -8
-228 -8 -232 -40 -232 -22 0 -32 -15 -86 -127 -33 -71 -65 -140 -69 -156 -9
-29 11 -122 74 -337 l33 -115 -651 -5 c-390 -3 -627 -8 -591 -13 33 -4 116
-15 185 -23 407 -49 790 -183 1086 -380 54 -36 102 -67 105 -70 3 -2 35 16 71
40 320 215 793 378 1208 416 69 7 136 15 150 20 14 5 -267 9 -632 9 -520 1
-658 4 -658 14 1 16 30 124 75 276 26 87 35 133 31 157 -4 18 -36 92 -71 163
-57 116 -67 131 -90 131 -31 0 -32 5 -40 200 -10 290 -49 797 -54 710z"/>
<path d="M6725 8515 c-42 -18 -201 -170 -276 -263 -167 -207 -441 -661 -653
-1082 -38 -74 -72 -140 -77 -146 -12 -14 -60 -124 -55 -124 3 0 53 78 113 173
189 301 303 434 366 425 20 -3 22 -8 21 -63 -2 -61 -10 -89 -178 -605 -37
-113 -70 -214 -73 -225 -5 -20 -5 -20 10 0 8 11 20 41 27 65 34 134 373 951
591 1429 49 106 119 245 155 308 37 63 65 116 63 118 -2 2 -17 -3 -34 -10z"/>
<path d="M1997 7560 c-65 -11 -169 -62 -227 -110 -26 -21 -77 -82 -114 -135
-38 -52 -71 -95 -75 -95 -4 0 -41 11 -82 25 -149 51 -234 43 -347 -32 -58 -39
-132 -115 -132 -137 0 -4 19 9 43 29 23 20 71 51 107 68 59 29 73 32 160 32
83 -1 104 -5 166 -31 l71 -31 28 54 c36 69 156 182 231 217 98 47 165 59 294
53 198 -8 313 -62 514 -242 134 -119 194 -159 99 -66 -34 33 -100 106 -148
161 -48 55 -111 119 -140 141 -109 82 -299 124 -448 99z"/>
<path d="M2086 7408 c-117 -15 -261 -106 -361 -226 -87 -104 -110 -141 -97
-154 7 -7 20 0 43 28 97 113 166 162 284 201 70 23 97 26 215 27 120 0 144 -3
215 -27 113 -38 377 -199 357 -218 -11 -12 -169 -39 -223 -39 -64 0 -147 28
-234 80 -96 56 -192 84 -261 77 -78 -8 -134 -39 -222 -123 -76 -73 -77 -74
-37 -60 22 8 58 22 80 31 62 27 151 16 250 -30 207 -97 274 -107 401 -61 192
68 375 54 497 -39 54 -41 84 -87 93 -142 8 -53 -8 -101 -55 -161 -52 -66 -53
-69 -36 -86 15 -14 21 -10 71 42 130 135 160 309 73 415 -44 53 -137 95 -237
107 -103 11 -151 33 -233 102 -182 154 -282 217 -384 242 -84 20 -131 23 -199
14z"/>
<path d="M1155 7133 c-61 -25 -140 -80 -168 -116 -65 -86 -103 -216 -113 -392
-6 -95 -10 -113 -29 -135 -30 -34 -41 -57 -50 -106 -8 -49 7 -111 35 -147 11
-14 20 -30 20 -35 0 -5 -37 -38 -82 -73 -221 -169 -319 -314 -319 -470 0 -85
17 -125 121 -284 43 -66 86 -137 96 -158 18 -38 18 -39 -10 -120 -44 -125 -91
-222 -156 -322 -82 -127 -104 -196 -97 -305 7 -100 39 -210 103 -348 72 -154
96 -304 74 -462 -31 -226 -114 -354 -356 -551 -137 -111 -174 -159 -206 -263
-26 -87 -21 -161 22 -306 35 -115 55 -160 43 -95 -4 22 -7 81 -6 130 1 162 55
253 280 480 189 191 253 288 290 444 32 139 1 382 -76 576 -51 128 -65 194
-66 300 0 118 9 153 87 341 57 139 67 182 94 389 l7 50 23 -50 c32 -67 30
-113 -5 -183 -91 -179 -86 -355 14 -584 47 -106 60 -155 96 -363 25 -151 31
-209 32 -360 2 -209 7 -194 -129 -426 -154 -264 -261 -525 -285 -695 -20 -140
-2 -288 57 -462 17 -51 64 -146 69 -140 2 2 -10 60 -27 128 -42 174 -47 287
-18 421 39 182 90 294 253 554 116 186 138 232 162 339 14 63 17 107 12 215
-5 140 -12 168 -102 471 -14 46 -24 91 -22 100 5 23 131 -243 166 -350 37
-113 51 -202 51 -330 0 -128 -12 -195 -70 -383 -60 -193 -74 -291 -67 -459 l5
-127 -43 -88 c-100 -206 -171 -437 -180 -591 -6 -102 6 -87 29 37 37 196 94
378 155 499 27 54 36 62 78 77 225 81 591 257 768 369 49 31 93 55 98 53 11
-3 106 -340 107 -376 0 -16 -27 -60 -73 -120 -193 -254 -383 -466 -561 -626
-74 -66 -133 -121 -131 -123 5 -5 78 41 182 115 174 123 382 294 520 426 73
70 136 127 141 127 5 0 15 -19 21 -42 7 -24 29 -77 48 -118 20 -41 55 -121 79
-178 52 -120 58 -93 -64 -272 -192 -283 -500 -660 -714 -873 -59 -59 -108
-110 -108 -113 0 -7 54 31 100 69 19 17 117 109 218 205 100 96 194 184 208
195 23 18 394 458 443 525 23 32 35 24 57 -36 10 -26 29 -61 43 -77 15 -17 43
-73 65 -125 21 -52 51 -124 67 -159 16 -35 29 -73 29 -86 0 -13 -47 -144 -104
-291 -112 -289 -129 -329 -258 -619 -101 -226 -106 -239 -78 -205 74 94 366
641 465 873 21 48 41 87 46 87 21 0 179 -388 239 -582 13 -43 25 -76 27 -74 7
6 -35 181 -101 422 -148 543 -257 842 -461 1264 -165 344 -228 512 -286 773
-58 261 -77 612 -44 817 27 162 103 359 201 519 41 67 10 39 -57 -51 -140
-189 -239 -418 -273 -633 -14 -84 -17 -92 -44 -105 -26 -12 -29 -10 -93 60
-73 78 -114 148 -150 255 -30 90 -32 259 -5 379 11 49 17 104 14 145 -3 63 -7
71 -71 162 -85 123 -142 243 -163 344 -20 98 -14 162 22 246 131 307 136 457
20 634 -66 101 -91 156 -105 230 -10 52 -6 125 6 125 2 0 54 -21 116 -46 216
-89 244 -96 545 -124 144 -14 290 -43 345 -70 50 -25 196 -46 249 -36 20 4 59
22 85 40 27 18 69 44 93 56 49 24 140 107 140 127 0 7 14 22 30 35 17 12 37
32 45 45 16 24 46 162 70 323 27 175 18 214 -55 241 -47 17 -58 34 -59 89 -2
63 -17 67 -36 11 -21 -66 -58 -131 -87 -158 -26 -23 -41 -31 -188 -104 -58
-28 -109 -55 -115 -59 -5 -5 -48 -24 -95 -43 -327 -135 -692 -135 -1033 0
l-87 35 5 62 c3 33 7 102 9 153 5 155 54 219 203 269 l68 23 -86 0 c-147 1
-225 -35 -250 -117 -10 -36 -9 -54 15 -150 26 -111 34 -206 16 -217 -15 -9
-119 46 -145 77 -68 81 -28 268 85 391 114 125 277 165 435 106 31 -11 58 -19
60 -17 3 2 0 31 -5 64 -11 72 -36 96 -160 157 -77 38 -93 42 -170 44 -61 2
-96 -2 -125 -14z m145 -132 c0 -5 -17 -15 -37 -21 -62 -20 -157 -76 -202 -121
-24 -22 -55 -66 -69 -97 -22 -48 -26 -74 -30 -184 -3 -70 -8 -128 -12 -128
-22 0 -60 45 -66 77 -10 51 10 197 36 265 38 102 137 189 240 209 53 10 140
10 140 0z m-198 -681 c263 -149 559 -207 924 -181 164 12 197 21 404 111 233
102 370 142 370 111 0 -16 -30 -41 -81 -67 -27 -13 -49 -26 -49 -28 0 -2 26 3
58 10 56 14 107 11 100 -5 -7 -17 -109 -100 -167 -136 -34 -21 -60 -39 -58
-41 2 -2 25 3 52 11 26 8 63 15 82 15 28 0 33 -3 33 -25 0 -28 -114 -132 -213
-192 -31 -20 -56 -38 -53 -40 2 -2 25 5 52 15 69 28 164 46 176 34 12 -12 -43
-60 -134 -114 -72 -43 -73 -43 -183 -46 -99 -3 -124 0 -255 32 -119 29 -175
37 -315 45 -189 11 -310 37 -508 110 -208 78 -291 135 -393 274 -46 62 -52 77
-31 77 12 0 86 -42 137 -77 16 -11 10 -1 -16 28 -39 43 -70 89 -61 89 3 0 22
-7 43 -16 l39 -16 -21 23 c-27 30 -37 49 -28 49 5 0 48 -23 96 -50z m-202
-165 c0 -3 -33 -41 -74 -85 -46 -49 -87 -105 -108 -147 -32 -65 -33 -72 -33
-188 0 -112 2 -125 31 -190 36 -83 146 -254 152 -236 6 19 -15 95 -56 195 -32
82 -36 100 -35 181 0 103 11 151 58 251 35 77 104 154 137 154 17 0 108 -55
108 -65 0 -1 -16 -23 -37 -47 -100 -119 -107 -278 -22 -483 22 -55 59 -149 81
-210 37 -105 39 -115 35 -205 -4 -78 -12 -117 -46 -218 -68 -199 -66 -298 9
-410 21 -31 71 -84 112 -117 116 -95 168 -146 196 -195 27 -44 27 -48 28 -235
1 -104 6 -211 12 -236 27 -109 80 -197 175 -291 l59 -58 -109 -51 c-109 -51
-250 -111 -289 -123 -20 -6 -20 -2 17 178 75 367 70 544 -21 726 -37 73 -154
224 -257 330 -45 47 -87 98 -92 114 -6 15 -11 91 -11 169 -1 163 -3 164 -68
27 -34 -70 -36 -82 -36 -165 1 -96 13 -137 76 -260 44 -86 79 -134 190 -263
163 -189 182 -242 176 -500 -4 -156 -8 -192 -36 -307 -17 -71 -45 -169 -61
-217 -36 -108 -110 -278 -121 -278 -4 0 -14 15 -21 33 -23 53 -15 187 16 292
75 250 87 295 92 376 14 208 -39 378 -206 657 -122 205 -181 350 -181 445 0
22 17 110 37 196 30 127 37 174 36 251 -1 119 -20 174 -103 306 -151 236 -180
373 -117 546 44 123 145 260 241 330 35 25 66 36 66 23z m246 -402 c117 -195
213 -481 201 -597 -3 -28 -23 -96 -45 -151 -46 -117 -82 -263 -82 -331 1 -63
19 -103 115 -244 111 -163 183 -320 147 -320 -22 0 -177 222 -232 330 -69 139
-82 259 -42 415 43 171 39 213 -37 393 -74 176 -104 295 -105 422 -1 99 10
150 32 150 5 0 26 -30 48 -67z m634 -2561 c0 -35 -346 -223 -508 -277 -46 -15
-85 -25 -88 -23 -5 5 28 105 45 136 6 11 25 23 43 27 73 15 280 77 383 114 61
22 113 40 118 40 4 1 7 -7 7 -17z m-106 -273 c-115 -120 -542 -381 -664 -406
l-34 -6 31 54 c16 30 49 88 72 131 23 42 47 81 54 86 7 5 63 22 126 37 63 15
183 51 265 80 83 29 157 54 165 54 9 1 4 -11 -15 -30z"/>
<path d="M905 5145 c19 -320 17 -303 32 -266 23 56 14 243 -15 301 l-22 45 5
-80z"/>
<path d="M1913 6946 c-56 -14 -163 -58 -163 -67 0 -3 24 -4 53 -1 90 7 203
-28 382 -118 113 -57 170 -81 196 -80 36 0 151 35 205 63 62 31 188 67 239 67
59 0 95 -21 121 -73 16 -30 15 -95 -2 -168 -7 -30 19 -47 41 -29 28 23 57 105
58 161 0 73 -24 117 -83 147 -57 30 -126 25 -225 -16 -168 -69 -287 -92 -365
-70 -14 4 -72 40 -128 81 -143 102 -227 128 -329 103z"/>
<path d="M5104 6818 c-17 -18 -39 -45 -50 -59 -55 -77 -437 -505 -606 -679
-324 -337 -674 -647 -956 -847 l-140 -100 -83 -6 c-176 -13 -370 -84 -520
-191 l-77 -55 -6 40 c-4 22 -18 79 -32 127 -19 65 -24 98 -19 132 7 42 32 100
45 100 3 0 12 -16 18 -35 7 -19 34 -53 59 -77 25 -24 58 -70 74 -103 28 -58
29 -59 25 -21 -3 21 -24 69 -47 107 -68 113 -95 240 -70 329 8 30 15 21 42
-57 16 -47 33 -71 93 -128 60 -58 77 -81 96 -133 12 -34 27 -62 32 -62 6 0 9
27 6 68 -3 60 -10 78 -60 167 -32 55 -65 120 -74 145 -21 60 -38 179 -38 268
1 39 -3 72 -8 72 -5 0 -35 -18 -68 -40 -62 -42 -60 -38 -80 -160 -14 -83 -64
-261 -102 -365 -81 -220 -170 -310 -333 -338 -57 -10 -77 -8 -162 11 -58 13
-146 44 -218 77 -163 74 -108 30 79 -64 150 -75 275 -124 342 -135 97 -17 191
48 250 170 19 40 39 76 44 79 15 9 67 -80 80 -135 l12 -49 -86 -93 c-194 -209
-391 -546 -447 -763 -21 -81 -24 -112 -23 -320 0 -261 19 -419 79 -663 68
-273 133 -450 331 -888 161 -359 198 -447 255 -619 49 -147 112 -381 130 -480
4 -27 17 -97 28 -155 19 -106 45 -343 60 -565 8 -116 8 -112 10 100 1 163 -4
266 -19 395 -46 406 -121 666 -358 1250 -267 657 -386 1059 -409 1379 -7 111
17 299 63 489 55 227 126 397 230 554 63 94 217 254 321 332 98 73 243 154
243 134 0 -7 -25 -42 -56 -78 -94 -110 -229 -324 -294 -465 -163 -356 -227
-706 -205 -1128 4 -82 9 -146 11 -144 4 4 41 288 64 492 11 99 41 245 50 245
8 0 21 -70 35 -185 9 -69 58 -263 93 -365 143 -416 351 -775 713 -1230 165
-208 265 -385 372 -655 152 -385 220 -692 267 -1194 10 -117 22 -216 25 -219
12 -12 4 419 -10 523 -9 61 -22 167 -30 236 -33 277 -135 605 -299 964 -25 55
-46 107 -46 116 0 9 9 42 20 75 40 113 63 311 63 529 0 197 -4 249 -44 492
-18 112 -18 128 -5 185 38 165 268 734 366 906 21 37 56 99 78 139 98 174 317
487 448 640 69 80 158 200 122 163 -8 -8 -97 -109 -198 -225 -442 -507 -615
-678 -717 -710 -1 0 -9 -73 -17 -160 -27 -284 -78 -577 -136 -775 -18 -64 -48
-198 -110 -495 -56 -268 -92 -417 -99 -409 -40 46 -282 369 -329 440 -298 447
-442 855 -442 1256 0 157 11 253 46 388 55 209 142 359 303 520 109 109 212
185 386 285 55 31 124 74 153 95 170 121 596 517 795 740 185 207 548 665 676
853 38 55 36 59 -5 15z m-1389 -4248 c19 -161 19 -352 -1 -493 -9 -62 -18
-114 -20 -116 -6 -7 -31 29 -60 87 l-27 53 12 152 c13 154 46 413 58 442 12
32 22 -3 38 -125z"/>
<path d="M6538 6799 c-18 -48 -635 -1910 -669 -2019 -56 -181 -52 -168 -41
-150 5 8 66 166 135 350 188 501 305 810 400 1055 113 292 119 305 127 305 7
0 14 -304 27 -1172 3 -246 10 -445 15 -442 4 3 8 48 8 101 0 52 7 249 15 436
8 188 19 505 25 704 12 384 14 410 24 420 7 8 24 -33 91 -220 29 -84 95 -264
145 -402 105 -283 144 -391 190 -520 44 -124 172 -446 176 -442 2 1 -43 144
-100 317 -57 173 -156 477 -220 675 -192 591 -317 969 -331 994 -8 17 -13 20
-17 10z"/>
<path d="M9282 6618 c-34 -101 -188 -559 -342 -1018 -327 -972 -343 -1020
-337 -1026 3 -3 12 14 20 38 9 24 34 90 57 148 40 102 72 185 130 340 54 143
171 455 200 530 16 41 84 224 152 405 l123 330 7 -145 c3 -80 11 -503 18 -940
7 -437 13 -796 15 -798 2 -2 5 70 9 160 3 90 10 296 16 458 6 162 15 459 20
660 12 453 20 630 30 630 9 0 92 -214 276 -718 181 -494 273 -737 304 -803 17
-35 28 -53 24 -39 -17 63 -647 1956 -653 1963 -4 4 -35 -75 -69 -175z"/>
<path d="M1825 6751 c85 -29 120 -45 145 -67 9 -7 72 -41 140 -75 245 -120
351 -115 518 23 99 82 133 98 205 98 42 0 58 3 55 13 -10 30 -78 19 -211 -36
-155 -65 -222 -80 -337 -80 -72 0 -102 6 -195 38 -60 20 -126 45 -145 55 -62
32 -162 60 -209 60 l-46 -1 80 -28z"/>
<path d="M1480 6721 c-75 -24 -109 -43 -147 -83 -71 -74 -87 -159 -54 -293
l17 -70 7 84 c13 158 88 269 229 340 80 40 80 41 42 40 -21 0 -64 -8 -94 -18z"/>
<path d="M5886 6534 c-9 -26 -14 -49 -12 -51 2 -2 11 17 20 43 9 26 14 49 12
51 -2 2 -11 -17 -20 -43z"/>
<path d="M5353 6317 c-113 -100 -737 -792 -922 -1021 -105 -130 -194 -267
-247 -382 -58 -123 -178 -444 -204 -544 -11 -41 -22 -86 -26 -100 -8 -30 130
113 392 406 98 110 319 351 490 535 171 184 410 442 531 574 l221 240 -43 46
c-55 59 -91 131 -111 219 -9 39 -20 70 -25 70 -4 0 -30 -19 -56 -43z"/>
<path d="M5594 6002 c-121 -133 -585 -716 -556 -698 16 10 562 669 611 737 32
45 1 23 -55 -39z"/>
<path d="M1845 4898 c80 -60 187 -174 213 -230 24 -49 29 -135 10 -171 -6 -12
-28 -44 -49 -72 -81 -109 -145 -276 -199 -516 -27 -125 -57 -373 -47 -402 2
-6 14 27 26 73 134 510 268 788 487 1006 103 102 117 123 108 158 -7 29 -28
36 -110 36 -79 0 -206 37 -354 101 -63 28 -122 53 -130 56 -8 4 12 -14 45 -39z"/>
<path d="M8487 4169 c28 -49 151 -171 218 -216 204 -137 431 -199 690 -190
332 12 617 144 796 370 22 27 39 53 39 58 0 5 -358 9 -881 9 l-880 0 18 -31z"/>
<path d="M5660 4183 c0 -17 43 -71 107 -136 191 -192 468 -297 788 -297 239 0
499 89 680 233 72 57 175 174 175 198 0 5 -362 9 -875 9 -481 0 -875 -3 -875
-7z"/>
<path d="M3064 2230 c8 -25 30 -94 50 -155 88 -264 161 -585 208 -920 28 -200
31 -245 32 -495 1 -151 -3 -327 -7 -391 l-8 -116 35 -18 c20 -11 39 -16 43
-11 4 4 8 179 8 389 0 331 -3 406 -23 562 -12 99 -26 202 -31 230 -8 45 -7 66
3 54 2 -2 33 -85 70 -184 62 -167 99 -288 147 -490 11 -43 22 -82 26 -85 11
-10 -6 124 -32 255 -93 469 -245 908 -438 1262 -33 61 -69 122 -79 135 -17 23
-18 22 -4 -22z"/>
</g>
</svg>
